<svg width="19" height="18" viewBox="0 0 19 18" fill="none" xmlns="http://www.w3.org/2000/svg">
<mask id="mask0_2363_470" style="mask-type:alpha" maskUnits="userSpaceOnUse" x="-1" y="-1" width="23" height="21">
<rect x="-0.917839" y="-0.844115" width="22.029" height="20.2667" fill="#D9D9D9"/>
</mask>
<g mask="url(#mask0_2363_470)">
<path d="M9.17874 6.75556V4.22222H6.42512V2.53333H9.17874V0H11.0145V2.53333H13.7681V4.22222H11.0145V6.75556H9.17874ZM5.50725 17.7333C5.00242 17.7333 4.57025 17.568 4.21075 17.2372C3.85125 16.9065 3.6715 16.5089 3.6715 16.0444C3.6715 15.58 3.85125 15.1824 4.21075 14.8517C4.57025 14.5209 5.00242 14.3556 5.50725 14.3556C6.01208 14.3556 6.44424 14.5209 6.80374 14.8517C7.16324 15.1824 7.34299 15.58 7.34299 16.0444C7.34299 16.5089 7.16324 16.9065 6.80374 17.2372C6.44424 17.568 6.01208 17.7333 5.50725 17.7333ZM14.686 17.7333C14.1812 17.7333 13.749 17.568 13.3895 17.2372C13.03 16.9065 12.8502 16.5089 12.8502 16.0444C12.8502 15.58 13.03 15.1824 13.3895 14.8517C13.749 14.5209 14.1812 14.3556 14.686 14.3556C15.1908 14.3556 15.623 14.5209 15.9825 14.8517C16.342 15.1824 16.5217 15.58 16.5217 16.0444C16.5217 16.5089 16.342 16.9065 15.9825 17.2372C15.623 17.568 15.1908 17.7333 14.686 17.7333ZM0 2.53333V0.844444H3.00604L6.907 8.44444H13.3321L16.9118 2.53333H19L14.9614 9.24667C14.7931 9.52815 14.5674 9.7463 14.2844 9.90111C14.0014 10.0559 13.6916 10.1333 13.3551 10.1333H6.51691L5.50725 11.8222H16.5217V13.5111H5.50725C4.81884 13.5111 4.29489 13.2367 3.93539 12.6878C3.57589 12.1389 3.56441 11.583 3.90097 11.02L5.1401 8.95111L1.83575 2.53333H0Z" fill="#0F2F63"/>
</g>
</svg>
