<svg width="27" height="25" viewBox="0 0 27 25" fill="none" xmlns="http://www.w3.org/2000/svg">
<mask id="mask0_2363_689" style="mask-type:alpha" maskUnits="userSpaceOnUse" x="-6" y="-2" width="34" height="31">
<rect x="-5.48389" y="-1.25" width="32.9032" height="30" fill="#D9D9D9"/>
</mask>
<g mask="url(#mask0_2363_689)">
<path d="M18.5081 22.5H19.879V19.375H23.3064V18.125H19.879V15H18.5081V18.125H15.0806V19.375H18.5081V22.5ZM19.1935 25C17.297 25 15.6804 24.3906 14.3438 23.1719C13.0071 21.9531 12.3387 20.4792 12.3387 18.75C12.3387 17.0208 13.0071 15.5469 14.3438 14.3281C15.6804 13.1094 17.297 12.5 19.1935 12.5C21.0901 12.5 22.7067 13.1094 24.0433 14.3281C25.38 15.5469 26.0484 17.0208 26.0484 18.75C26.0484 20.4792 25.38 21.9531 24.0433 23.1719C22.7067 24.3906 21.0901 25 19.1935 25ZM0 22.5V7.5L10.9677 0L21.9355 7.5V10.375C21.5013 10.25 21.0558 10.1562 20.5988 10.0938C20.1418 10.0312 19.6734 10 19.1935 10V8.75L10.9677 3.125L2.74194 8.75V20H9.6996C9.76814 20.4375 9.87097 20.8646 10.0081 21.2812C10.1452 21.6979 10.3165 22.1042 10.5222 22.5H0Z" fill="#1C1B1F"/>
</g>
</svg>
