<svg width="12" height="12" viewBox="0 0 12 12" fill="none" xmlns="http://www.w3.org/2000/svg">
<mask id="mask0_2363_479" style="mask-type:alpha" maskUnits="userSpaceOnUse" x="-2" y="-2" width="16" height="16">
<rect x="-1.875" y="-2" width="15" height="16" fill="#D9D9D9"/>
</mask>
<g mask="url(#mask0_2363_479)">
<path d="M1.25 10.6667H2.14062L8.25 4.15L7.35938 3.2L1.25 9.71667V10.6667ZM0 12V9.16667L8.25 0.383333C8.375 0.261111 8.51302 0.166667 8.66406 0.1C8.8151 0.0333333 8.97396 0 9.14062 0C9.30729 0 9.46875 0.0333333 9.625 0.1C9.78125 0.166667 9.91667 0.266667 10.0313 0.4L10.8906 1.33333C11.0156 1.45556 11.1068 1.6 11.1641 1.76667C11.2214 1.93333 11.25 2.1 11.25 2.26667C11.25 2.44444 11.2214 2.61389 11.1641 2.775C11.1068 2.93611 11.0156 3.08333 10.8906 3.21667L2.65625 12H0ZM7.79688 3.68333L7.35938 3.2L8.25 4.15L7.79688 3.68333Z" fill="#1C1B1F"/>
</g>
</svg>
