<svg width="28" height="28" viewBox="0 0 28 28" fill="none" xmlns="http://www.w3.org/2000/svg">
<mask id="mask0_2036_1470" style="mask-type:alpha" maskUnits="userSpaceOnUse" x="0" y="0" width="28" height="28">
<rect width="28" height="28" fill="#D9D9D9"/>
</mask>
<g mask="url(#mask0_2036_1470)">
<path d="M13.9999 25.6668C12.4055 25.6668 10.8985 25.3606 9.47909 24.7481C8.05964 24.1356 6.82006 23.2995 5.76034 22.2397C4.70061 21.18 3.8645 19.9404 3.252 18.521C2.6395 17.1016 2.33325 15.5946 2.33325 14.0002C2.33325 12.3863 2.6395 10.8745 3.252 9.46475C3.8645 8.05502 4.70061 6.8203 5.76034 5.76058C6.82006 4.70086 8.05964 3.86475 9.47909 3.25225C10.8985 2.63975 12.4055 2.3335 13.9999 2.3335C15.6138 2.3335 17.1256 2.63975 18.5353 3.25225C19.9451 3.86475 21.1798 4.70086 22.2395 5.76058C23.2992 6.8203 24.1353 8.05502 24.7478 9.46475C25.3603 10.8745 25.6666 12.3863 25.6666 14.0002C25.6666 15.5946 25.3603 17.1016 24.7478 18.521C24.1353 19.9404 23.2992 21.18 22.2395 22.2397C21.1798 23.2995 19.9451 24.1356 18.5353 24.7481C17.1256 25.3606 15.6138 25.6668 13.9999 25.6668ZM13.9999 23.2752C14.5055 22.5752 14.943 21.846 15.3124 21.0877C15.6819 20.3293 15.9833 19.5224 16.2166 18.6668H11.7833C12.0166 19.5224 12.318 20.3293 12.6874 21.0877C13.0569 21.846 13.4944 22.5752 13.9999 23.2752ZM10.9666 22.8085C10.6166 22.1668 10.3103 21.5009 10.0478 20.8106C9.78534 20.1203 9.56659 19.4057 9.39159 18.6668H5.94992C6.51381 19.6391 7.21867 20.4849 8.0645 21.2043C8.91034 21.9238 9.8777 22.4585 10.9666 22.8085ZM17.0333 22.8085C18.1221 22.4585 19.0895 21.9238 19.9353 21.2043C20.7812 20.4849 21.486 19.6391 22.0499 18.6668H18.6083C18.4333 19.4057 18.2145 20.1203 17.952 20.8106C17.6895 21.5009 17.3833 22.1668 17.0333 22.8085ZM4.95825 16.3335H8.92492C8.86659 15.9446 8.82284 15.5606 8.79367 15.1814C8.7645 14.8022 8.74992 14.4085 8.74992 14.0002C8.74992 13.5918 8.7645 13.1981 8.79367 12.8189C8.82284 12.4397 8.86659 12.0557 8.92492 11.6668H4.95825C4.86103 12.0557 4.78811 12.4397 4.7395 12.8189C4.69089 13.1981 4.66659 13.5918 4.66659 14.0002C4.66659 14.4085 4.69089 14.8022 4.7395 15.1814C4.78811 15.5606 4.86103 15.9446 4.95825 16.3335ZM11.2583 16.3335H16.7416C16.7999 15.9446 16.8437 15.5606 16.8728 15.1814C16.902 14.8022 16.9166 14.4085 16.9166 14.0002C16.9166 13.5918 16.902 13.1981 16.8728 12.8189C16.8437 12.4397 16.7999 12.0557 16.7416 11.6668H11.2583C11.1999 12.0557 11.1562 12.4397 11.127 12.8189C11.0978 13.1981 11.0833 13.5918 11.0833 14.0002C11.0833 14.4085 11.0978 14.8022 11.127 15.1814C11.1562 15.5606 11.1999 15.9446 11.2583 16.3335ZM19.0749 16.3335H23.0416C23.1388 15.9446 23.2117 15.5606 23.2603 15.1814C23.3089 14.8022 23.3333 14.4085 23.3333 14.0002C23.3333 13.5918 23.3089 13.1981 23.2603 12.8189C23.2117 12.4397 23.1388 12.0557 23.0416 11.6668H19.0749C19.1333 12.0557 19.177 12.4397 19.2062 12.8189C19.2353 13.1981 19.2499 13.5918 19.2499 14.0002C19.2499 14.4085 19.2353 14.8022 19.2062 15.1814C19.177 15.5606 19.1333 15.9446 19.0749 16.3335ZM18.6083 9.3335H22.0499C21.486 8.36127 20.7812 7.51544 19.9353 6.796C19.0895 6.07655 18.1221 5.54183 17.0333 5.19183C17.3833 5.8335 17.6895 6.49947 17.952 7.18975C18.2145 7.88002 18.4333 8.59461 18.6083 9.3335ZM11.7833 9.3335H16.2166C15.9833 8.47794 15.6819 7.671 15.3124 6.91266C14.943 6.15433 14.5055 5.42516 13.9999 4.72516C13.4944 5.42516 13.0569 6.15433 12.6874 6.91266C12.318 7.671 12.0166 8.47794 11.7833 9.3335ZM5.94992 9.3335H9.39159C9.56659 8.59461 9.78534 7.88002 10.0478 7.18975C10.3103 6.49947 10.6166 5.8335 10.9666 5.19183C9.8777 5.54183 8.91034 6.07655 8.0645 6.796C7.21867 7.51544 6.51381 8.36127 5.94992 9.3335Z" fill="#008EDB"/>
</g>
</svg>
