<svg width="25" height="21" viewBox="0 0 25 21" fill="none" xmlns="http://www.w3.org/2000/svg">
<path d="M12.4999 19.25C12.2569 19.25 12.0485 19.1917 11.8749 19.075C11.7013 18.9583 11.5711 18.8052 11.4843 18.6156C11.1544 17.799 10.7378 17.0333 10.2343 16.3187C9.74818 15.6042 9.06242 14.7656 8.177 13.8031C7.29159 12.8406 6.5711 11.9219 6.01554 11.0469C5.47735 10.1719 5.20825 9.11458 5.20825 7.875C5.20825 6.16875 5.91138 4.725 7.31763 3.54375C8.74124 2.34792 10.4687 1.75 12.4999 1.75C14.5312 1.75 16.2499 2.34792 17.6562 3.54375C19.0798 4.725 19.7916 6.16875 19.7916 7.875C19.7916 9.20208 19.4878 10.3104 18.8801 11.2C18.2898 12.075 17.6041 12.9427 16.8228 13.8031C15.8853 14.8531 15.1735 15.7281 14.6874 16.4281C14.2187 17.1135 13.828 17.8427 13.5155 18.6156C13.4287 18.8198 13.2898 18.9802 13.0989 19.0969C12.9253 19.199 12.7256 19.25 12.4999 19.25ZM12.4999 16.1219C12.7951 15.626 13.1249 15.1375 13.4895 14.6562C13.8714 14.175 14.427 13.5333 15.1562 12.7312C15.9027 11.9146 16.5103 11.1635 16.9791 10.4781C17.4652 9.77812 17.7083 8.91042 17.7083 7.875C17.7083 6.66458 17.1961 5.63646 16.1718 4.79062C15.1649 3.93021 13.9409 3.5 12.4999 3.5C11.0589 3.5 9.82631 3.93021 8.802 4.79062C7.79506 5.63646 7.29159 6.66458 7.29159 7.875C7.29159 8.91042 7.52596 9.77812 7.99471 10.4781C8.48082 11.1635 9.09714 11.9146 9.84367 12.7312C10.5728 13.5333 11.1197 14.175 11.4843 14.6562C11.8662 15.1375 12.2048 15.626 12.4999 16.1219ZM12.4999 10.0625C13.2291 10.0625 13.8454 9.85104 14.3489 9.42812C14.8523 9.00521 15.1041 8.4875 15.1041 7.875C15.1041 7.2625 14.8523 6.74479 14.3489 6.32187C13.8454 5.89896 13.2291 5.6875 12.4999 5.6875C11.7708 5.6875 11.1544 5.89896 10.651 6.32187C10.1475 6.74479 9.89575 7.2625 9.89575 7.875C9.89575 8.4875 10.1475 9.00521 10.651 9.42812C11.1544 9.85104 11.7708 10.0625 12.4999 10.0625Z" fill="#008EDB"/>
</svg>
