<svg width="15" height="16" viewBox="0 0 15 16" fill="none" xmlns="http://www.w3.org/2000/svg">
<path d="M7.4933 10.9812C7.34889 10.9798 7.21062 10.9187 7.10766 10.8107L1.65312 4.9925C1.55376 4.88277 1.49878 4.7358 1.50002 4.58325C1.50126 4.4307 1.55863 4.28477 1.65976 4.1769C1.76089 4.06902 1.8977 4.00783 2.04071 4.00651C2.18373 4.00518 2.32151 4.06383 2.42439 4.16981L7.4933 9.57665L12.5622 4.16981C12.6125 4.11424 12.6727 4.06992 12.7393 4.03942C12.8058 4.00893 12.8774 3.99288 12.9498 3.99221C13.0222 3.99154 13.0941 4.00626 13.1611 4.03551C13.2281 4.06477 13.289 4.10797 13.3402 4.1626C13.3915 4.21723 13.432 4.28219 13.4594 4.35369C13.4868 4.42519 13.5006 4.50181 13.5 4.57906C13.4994 4.65631 13.4843 4.73266 13.4557 4.80364C13.4271 4.87463 13.3856 4.93883 13.3335 4.9925L7.87893 10.8107C7.77597 10.9187 7.6377 10.9798 7.4933 10.9812Z" fill="black"/>
</svg>
