<svg width="13" height="1" viewBox="0 0 13 1" fill="none" xmlns="http://www.w3.org/2000/svg">
<path d="M6.50003 0.119588L5.55752 0.111116C4.46335 0.101232 3.55877 0.0927052 2.84376 0.0855365C2.12876 0.0783677 1.56001 0.0719321 1.1375 0.0662297C0.715003 0.0605272 0.419793 0.0552864 0.251876 0.0505072C0.0839587 0.0457281 0 0.0408403 0 0.0358438C0 0.0256338 0.341251 0.0171073 1.02375 0.0102644C1.70626 0.00342146 2.55668 0 3.57502 0C4.13835 0 4.6746 0.0011948 5.18377 0.00358438C5.69294 0.00597397 6.13169 0.00934113 6.50003 0.0136858C6.86836 0.00934113 7.30711 0.00597397 7.81628 0.00358438C8.32545 0.0011948 8.8617 0 9.42504 0C10.4434 0 11.2938 0.00342146 11.9763 0.0102644C12.6588 0.0171073 13.0001 0.0256338 13.0001 0.0358438C13.0001 0.0408403 12.9161 0.0457281 12.7482 0.0505072C12.5803 0.0552864 12.2851 0.0605272 11.8626 0.0662297C11.44 0.0719321 10.8713 0.0783677 10.1563 0.0855365C9.44129 0.0927052 8.5367 0.101232 7.44253 0.111116L6.50003 0.119588ZM6.50003 0.101992C7.54003 0.0926509 8.39587 0.0846404 9.06754 0.0779604C9.73921 0.0712804 10.27 0.0654693 10.66 0.0605272C11.05 0.0555851 11.3209 0.0511861 11.4725 0.0473302C11.6242 0.0434742 11.7001 0.0396455 11.7001 0.0358438C11.7001 0.0293268 11.4834 0.0238959 11.05 0.0195512C10.6167 0.0152065 10.075 0.0130341 9.42504 0.0130341C8.91587 0.0130341 8.44462 0.0144733 8.01128 0.0173517C7.57795 0.0202301 7.28003 0.0238959 7.11753 0.0283492H5.88253C5.72002 0.0238959 5.42211 0.0202301 4.98877 0.0173517C4.55544 0.0144733 4.08418 0.0130341 3.57502 0.0130341C2.92501 0.0130341 2.38334 0.0152065 1.95001 0.0195512C1.51667 0.0238959 1.30001 0.0293268 1.30001 0.0358438C1.30001 0.0396455 1.37584 0.0434742 1.52751 0.0473302C1.67917 0.0511861 1.95001 0.0555851 2.34001 0.0605272C2.73001 0.0654693 3.26085 0.0712804 3.93252 0.0779604C4.60419 0.0846404 5.46002 0.0926509 6.50003 0.101992Z" fill="#1C1B1F"/>
</svg>
