<svg width="13" height="13" viewBox="0 0 13 13" fill="none" xmlns="http://www.w3.org/2000/svg">
<mask id="mask0_2039_1466" style="mask-type:alpha" maskUnits="userSpaceOnUse" x="-2" y="-2" width="17" height="17">
<rect x="-1.3325" y="-1.3" width="15.6" height="15.6" fill="#D9D9D9"/>
</mask>
<g mask="url(#mask0_2039_1466)">
<path d="M6.4675 13C4.78833 13 3.33125 12.4421 2.09625 11.3263C0.86125 10.2104 0.1625 8.81833 0 7.15H1.31625C1.47875 8.46083 2.05021 9.54688 3.03063 10.4081C4.01104 11.2694 5.15667 11.7 6.4675 11.7C7.91917 11.7 9.14875 11.1963 10.1562 10.1888C11.1638 9.18125 11.6675 7.95167 11.6675 6.5C11.6675 5.04833 11.1638 3.81875 10.1562 2.81125C9.14875 1.80375 7.91917 1.3 6.4675 1.3C5.53583 1.3 4.67188 1.53021 3.87563 1.99063C3.07938 2.45104 2.44833 3.0875 1.9825 3.9H3.8675V5.2H0.0975C0.411667 3.68333 1.16458 2.4375 2.35625 1.4625C3.54792 0.4875 4.91833 0 6.4675 0C7.36667 0 8.21167 0.170625 9.0025 0.511875C9.79333 0.853125 10.4813 1.31625 11.0663 1.90125C11.6513 2.48625 12.1144 3.17417 12.4556 3.965C12.7969 4.75583 12.9675 5.60083 12.9675 6.5C12.9675 7.39917 12.7969 8.24417 12.4556 9.035C12.1144 9.82583 11.6513 10.5137 11.0663 11.0988C10.4813 11.6838 9.79333 12.1469 9.0025 12.4881C8.21167 12.8294 7.36667 13 6.4675 13ZM8.2875 9.23L5.8175 6.76V3.25H7.1175V6.24L9.1975 8.32L8.2875 9.23Z" fill="#707070"/>
</g>
</svg>
