<svg width="25" height="21" viewBox="0 0 25 21" fill="none" xmlns="http://www.w3.org/2000/svg">
<path d="M12.5002 19.25C12.2571 19.25 12.0488 19.1917 11.8752 19.075C11.7016 18.9583 11.5713 18.8052 11.4845 18.6156C11.1547 17.799 10.738 17.0333 10.2345 16.3187C9.74843 15.6042 9.06266 14.7656 8.17725 13.8031C7.29183 12.8406 6.57134 11.9219 6.01579 11.0469C5.47759 10.1719 5.2085 9.11458 5.2085 7.875C5.2085 6.16875 5.91162 4.725 7.31787 3.54375C8.74148 2.34792 10.4689 1.75 12.5002 1.75C14.5314 1.75 16.2502 2.34792 17.6564 3.54375C19.08 4.725 19.7918 6.16875 19.7918 7.875C19.7918 9.20208 19.488 10.3104 18.8804 11.2C18.2901 12.075 17.6043 12.9427 16.8231 13.8031C15.8856 14.8531 15.1738 15.7281 14.6877 16.4281C14.2189 17.1135 13.8283 17.8427 13.5158 18.6156C13.429 18.8198 13.2901 18.9802 13.0991 19.0969C12.9255 19.199 12.7259 19.25 12.5002 19.25ZM12.5002 16.1219C12.7953 15.626 13.1252 15.1375 13.4897 14.6562C13.8717 14.175 14.4272 13.5333 15.1564 12.7312C15.9029 11.9146 16.5106 11.1635 16.9793 10.4781C17.4654 9.77812 17.7085 8.91042 17.7085 7.875C17.7085 6.66458 17.1963 5.63646 16.172 4.79062C15.1651 3.93021 13.9411 3.5 12.5002 3.5C11.0592 3.5 9.82655 3.93021 8.80225 4.79062C7.7953 5.63646 7.29183 6.66458 7.29183 7.875C7.29183 8.91042 7.5262 9.77812 7.99495 10.4781C8.48107 11.1635 9.09739 11.9146 9.84391 12.7312C10.5731 13.5333 11.12 14.175 11.4845 14.6562C11.8665 15.1375 12.205 15.626 12.5002 16.1219ZM12.5002 10.0625C13.2293 10.0625 13.8456 9.85104 14.3491 9.42812C14.8526 9.00521 15.1043 8.4875 15.1043 7.875C15.1043 7.2625 14.8526 6.74479 14.3491 6.32187C13.8456 5.89896 13.2293 5.6875 12.5002 5.6875C11.771 5.6875 11.1547 5.89896 10.6512 6.32187C10.1477 6.74479 9.896 7.2625 9.896 7.875C9.896 8.4875 10.1477 9.00521 10.6512 9.42812C11.1547 9.85104 11.771 10.0625 12.5002 10.0625Z" fill="#008EDB"/>
</svg>
