<svg width="24" height="25" viewBox="0 0 24 25" fill="none" xmlns="http://www.w3.org/2000/svg">
<mask id="mask0_2039_1641" style="mask-type:alpha" maskUnits="userSpaceOnUse" x="-5" y="-3" width="30" height="31">
<rect x="-5" y="-2.5" width="30" height="30" fill="#D9D9D9"/>
</mask>
<g mask="url(#mask0_2039_1641)">
<path d="M10 25C9.3125 25 8.72396 24.7552 8.23438 24.2656C7.74479 23.776 7.5 23.1875 7.5 22.5H12.5C12.5 23.1875 12.2552 23.776 11.7656 24.2656C11.276 24.7552 10.6875 25 10 25ZM0 21.25V18.75H2.5V10C2.5 8.27083 3.02083 6.73438 4.0625 5.39062C5.10417 4.04688 6.45833 3.16667 8.125 2.75V1.875C8.125 1.35417 8.30729 0.911458 8.67188 0.546875C9.03646 0.182292 9.47917 0 10 0C10.5208 0 10.9635 0.182292 11.3281 0.546875C11.6927 0.911458 11.875 1.35417 11.875 1.875V2.75C12.3542 2.85417 12.8073 3.01042 13.2344 3.21875C13.6615 3.42708 14.0729 3.67708 14.4688 3.96875C13.9271 4.13542 13.3906 4.31771 12.8594 4.51562C12.3281 4.71354 11.8125 4.9375 11.3125 5.1875C11.0833 5.125 10.8646 5.07812 10.6563 5.04688C10.4479 5.01562 10.2292 5 10 5C8.625 5 7.44792 5.48958 6.46875 6.46875C5.48958 7.44792 5 8.625 5 10V18.75H20V21.25H0ZM10.9375 10.5L9.59375 9.1875C10.5104 8.27083 11.5781 7.55208 12.7969 7.03125C14.0156 6.51042 15.3125 6.25 16.6875 6.25C18.0625 6.25 19.3542 6.51042 20.5625 7.03125C21.7708 7.55208 22.8333 8.27083 23.75 9.1875L22.4063 10.5C21.6771 9.77083 20.8177 9.19271 19.8281 8.76562C18.8385 8.33854 17.7812 8.125 16.6562 8.125C15.5312 8.125 14.4792 8.33854 13.5 8.76562C12.5208 9.19271 11.6667 9.77083 10.9375 10.5ZM13.5938 13.1563L12.25 11.8125C12.8125 11.25 13.4688 10.8073 14.2188 10.4844C14.9688 10.1615 15.7812 10 16.6562 10C17.5312 10 18.349 10.1615 19.1094 10.4844C19.8698 10.8073 20.5312 11.25 21.0938 11.8125L19.75 13.1563C19.3542 12.7396 18.8958 12.4219 18.375 12.2031C17.8542 11.9844 17.2917 11.875 16.6875 11.875C16.0833 11.875 15.5156 11.9896 14.9844 12.2188C14.4531 12.4479 13.9896 12.7604 13.5938 13.1563ZM16.6875 16.25L14.9062 14.5C15.1354 14.2708 15.401 14.0885 15.7031 13.9531C16.0052 13.8177 16.3333 13.75 16.6875 13.75C17.0417 13.75 17.3646 13.8177 17.6562 13.9531C17.9479 14.0885 18.2083 14.2708 18.4375 14.5L16.6875 16.25Z" fill="#1C1B1F"/>
</g>
</svg>
