<svg width="64" height="64" viewBox="0 0 64 64" fill="none" xmlns="http://www.w3.org/2000/svg">
<path d="M0 32C0 14.3269 14.3269 0 32 0C49.6731 0 64 14.3269 64 32C64 49.6731 49.6731 64 32 64C14.3269 64 0 49.6731 0 32Z" fill="#2F8000"/>
<path d="M43 21H21C20.4696 21 19.9609 21.2107 19.5858 21.5858C19.2107 21.9609 19 22.4696 19 23V41C19 41.5304 19.2107 42.0391 19.5858 42.4142C19.9609 42.7893 20.4696 43 21 43H43C43.5304 43 44.0391 42.7893 44.4142 42.4142C44.7893 42.0391 45 41.5304 45 41V23C45 22.4696 44.7893 21.9609 44.4142 21.5858C44.0391 21.2107 43.5304 21 43 21ZM43 23V35.8438L39.7412 32.5863C39.5555 32.4005 39.335 32.2531 39.0923 32.1526C38.8497 32.052 38.5896 32.0003 38.3269 32.0003C38.0642 32.0003 37.8041 32.052 37.5614 32.1526C37.3187 32.2531 37.0982 32.4005 36.9125 32.5863L34.4125 35.0863L28.9125 29.5863C28.5375 29.2115 28.029 29.0009 27.4987 29.0009C26.9685 29.0009 26.46 29.2115 26.085 29.5863L21 34.6712V23H43ZM21 37.5L27.5 31L37.5 41H21V37.5ZM43 41H40.3288L35.8288 36.5L38.3288 34L43 38.6725V41ZM34 28.5C34 28.2033 34.088 27.9133 34.2528 27.6666C34.4176 27.42 34.6519 27.2277 34.926 27.1142C35.2001 27.0006 35.5017 26.9709 35.7926 27.0288C36.0836 27.0867 36.3509 27.2296 36.5607 27.4393C36.7704 27.6491 36.9133 27.9164 36.9712 28.2074C37.0291 28.4983 36.9993 28.7999 36.8858 29.074C36.7723 29.3481 36.58 29.5824 36.3334 29.7472C36.0867 29.912 35.7967 30 35.5 30C35.1022 30 34.7206 29.842 34.4393 29.5607C34.158 29.2794 34 28.8978 34 28.5Z" fill="white"/>
</svg>
