<svg width="40" height="40" viewBox="0 0 40 40" fill="none" xmlns="http://www.w3.org/2000/svg">
<path d="M29.0001 19.9999C29.0001 20.1988 28.9211 20.3896 28.7804 20.5303C28.6398 20.6709 28.449 20.7499 28.2501 20.7499H13.5604L19.0307 26.2193C19.1004 26.289 19.1557 26.3717 19.1934 26.4628C19.2311 26.5538 19.2505 26.6514 19.2505 26.7499C19.2505 26.8485 19.2311 26.9461 19.1934 27.0371C19.1557 27.1281 19.1004 27.2109 19.0307 27.2806C18.961 27.3502 18.8783 27.4055 18.7873 27.4432C18.6962 27.4809 18.5986 27.5003 18.5001 27.5003C18.4016 27.5003 18.304 27.4809 18.2129 27.4432C18.1219 27.4055 18.0392 27.3502 17.9695 27.2806L11.2195 20.5306C11.1497 20.4609 11.0944 20.3782 11.0567 20.2871C11.0189 20.1961 10.9995 20.0985 10.9995 19.9999C10.9995 19.9014 11.0189 19.8038 11.0567 19.7127C11.0944 19.6217 11.1497 19.539 11.2195 19.4693L17.9695 12.7193C18.1102 12.5786 18.3011 12.4995 18.5001 12.4995C18.6991 12.4995 18.89 12.5786 19.0307 12.7193C19.1715 12.86 19.2505 13.0509 19.2505 13.2499C19.2505 13.449 19.1715 13.6398 19.0307 13.7806L13.5604 19.2499H28.2501C28.449 19.2499 28.6398 19.3289 28.7804 19.4696C28.9211 19.6103 29.0001 19.801 29.0001 19.9999Z" fill="#1A202C"/>
</svg>
