<svg width="20" height="20" viewBox="0 0 20 20" fill="none" xmlns="http://www.w3.org/2000/svg">
<path d="M16.6923 7.94205L10.4423 14.192C10.3842 14.2502 10.3153 14.2963 10.2394 14.3277C10.1636 14.3592 10.0822 14.3754 10.0001 14.3754C9.91797 14.3754 9.83664 14.3592 9.76077 14.3277C9.68489 14.2963 9.61596 14.2502 9.55792 14.192L3.30792 7.94205C3.19064 7.82477 3.12476 7.66571 3.12476 7.49986C3.12476 7.33401 3.19064 7.17495 3.30792 7.05767C3.42519 6.9404 3.58425 6.87451 3.7501 6.87451C3.91596 6.87451 4.07502 6.9404 4.19229 7.05767L10.0001 12.8663L15.8079 7.05767C15.866 6.9996 15.9349 6.95354 16.0108 6.92211C16.0867 6.89069 16.168 6.87451 16.2501 6.87451C16.3322 6.87451 16.4135 6.89069 16.4894 6.92211C16.5653 6.95354 16.6342 6.9996 16.6923 7.05767C16.7504 7.11574 16.7964 7.18468 16.8278 7.26055C16.8593 7.33642 16.8755 7.41774 16.8755 7.49986C16.8755 7.58198 16.8593 7.6633 16.8278 7.73917C16.7964 7.81504 16.7504 7.88398 16.6923 7.94205Z" fill="#A0AEC0"/>
</svg>
